<svg id="Layer_1" data-name="Layer 1" xmlns="http://www.w3.org/2000/svg" viewBox="0 0 192 192"><defs><style>.cls-1{fill:#4285f4;}.cls-2{fill:#fcc30b;}.cls-3{fill:#e5e5e5;}.cls-4{fill:#424242;}.cls-5{fill:#fff;}.cls-6{fill:#ff0005;}.cls-7{fill:#ffb300;}.cls-8{fill:#00ab38;}.cls-9{fill:#27bbe0;}</style></defs><circle class="cls-1" cx="96" cy="97.02" r="82.39"/><path class="cls-2" d="M124.81,94.81A28.81,28.81,0,1,0,80.18,118.9a6.55,6.55,0,0,1,3,5.49V131h25.72v-6.63a6.6,6.6,0,0,1,3-5.51A28.79,28.79,0,0,0,124.81,94.81Z"/><path class="cls-3" d="M108.86,131H83.14v4.14a8.31,8.31,0,0,0,8.3,8.3h9.12a8.31,8.31,0,0,0,8.3-8.3Z"/><path class="cls-3" d="M100.56,142.78H92.2v1.79a2.05,2.05,0,0,0,2,2.05h4.26a2.05,2.05,0,0,0,2-2.05Z"/><path class="cls-4" d="M100.85,144.06H91.91a.61.61,0,0,1,0-1.21h8.94a.61.61,0,0,1,0,1.21Z"/><path class="cls-5" d="M106.68,97.61a.58.58,0,0,1-.45-.2l-3.11-3.51L100,97.41a.62.62,0,0,1-.9,0L96,93.9l-3.11,3.51a.61.61,0,0,1-.45.2h0a.58.58,0,0,1-.45-.2L88.88,93.9l-3.11,3.51a.62.62,0,0,1-.9,0l-3.56-4a.6.6,0,1,1,.9-.79l3.11,3.5,3.11-3.5a.62.62,0,0,1,.9,0l3.11,3.5,3.1-3.5a.63.63,0,0,1,.91,0l3.11,3.5,3.1-3.5a.63.63,0,0,1,.91,0l3.11,3.5,3.11-3.5a.6.6,0,1,1,.9.79l-3.56,4A.61.61,0,0,1,106.68,97.61Z"/><path class="cls-4" d="M83.14,131.9h25.72a.6.6,0,1,0,0-1.2H97.18l9.45-31.23a.6.6,0,1,0-1.15-.35l-4.17,13.76a5.16,5.16,0,0,1-9.88,0L87.29,99.12a.61.61,0,0,0-1.16.35l9.42,31.23H83.14a.6.6,0,0,0,0,1.2Z"/><path class="cls-4" d="M108.86,134.64H83.14a.6.6,0,0,0-.6.6.6.6,0,0,0,.6.6h25.72a.6.6,0,0,0,.6-.6A.6.6,0,0,0,108.86,134.64Z"/><path class="cls-4" d="M96.36,60.06a.6.6,0,0,1-.6-.6V48.31a.61.61,0,0,1,1.21,0V59.46A.6.6,0,0,1,96.36,60.06Z"/><path class="cls-4" d="M76,66.44a.58.58,0,0,1-.49-.25l-6.56-9a.61.61,0,0,1,.14-.84.6.6,0,0,1,.84.13l6.55,9a.6.6,0,0,1-.13.84A.66.66,0,0,1,76,66.44Z"/><path class="cls-4" d="M63.29,83.57a.63.63,0,0,1-.19,0L52.49,80.09a.6.6,0,0,1-.38-.76.6.6,0,0,1,.76-.38l10.6,3.44a.6.6,0,0,1,.39.76A.61.61,0,0,1,63.29,83.57Z"/><path class="cls-4" d="M52.46,108.34a.61.61,0,0,1-.58-.41.6.6,0,0,1,.39-.76l10.61-3.45a.6.6,0,1,1,.37,1.15l-10.61,3.44A.57.57,0,0,1,52.46,108.34Z"/><path class="cls-4" d="M68.86,131.31a.61.61,0,0,1-.48-1l6.55-9a.6.6,0,0,1,.84-.13.61.61,0,0,1,.14.84l-6.56,9A.61.61,0,0,1,68.86,131.31Z"/><path class="cls-4" d="M122.55,131.74a.61.61,0,0,1-.49-.25l-6.55-9a.6.6,0,1,1,1-.71l6.56,9a.61.61,0,0,1-.14.84A.59.59,0,0,1,122.55,131.74Z"/><path class="cls-4" d="M139.32,109a.63.63,0,0,1-.19,0l-10.6-3.45a.6.6,0,0,1,.37-1.15l10.61,3.45a.61.61,0,0,1-.19,1.18Z"/><path class="cls-4" d="M128.94,84.26a.61.61,0,0,1-.58-.42.62.62,0,0,1,.39-.76l10.61-3.44a.6.6,0,1,1,.37,1.14l-10.61,3.45A.57.57,0,0,1,128.94,84.26Z"/><path class="cls-4" d="M116.58,66.87a.57.57,0,0,1-.35-.12.61.61,0,0,1-.14-.84l6.56-9a.6.6,0,1,1,1,.71l-6.55,9A.61.61,0,0,1,116.58,66.87Z"/><path class="cls-6" d="M169.2,50.39,175,45a18.17,18.17,0,0,0,5.65-15.77l-.38-2.8a18.15,18.15,0,0,0-28.6-12.27l-8.49,6.12a17.9,17.9,0,0,0-7.36,12.06,19.06,19.06,0,0,0-.18,2.93,18,18,0,0,0,8,14.77l3.05,2.06A18.07,18.07,0,0,0,169.2,50.39Zm-22,1-3.05-2.07a17.32,17.32,0,0,1-.41-28.4l8.49-6.12a17.32,17.32,0,0,1,27.3,11.72l.38,2.79a17.28,17.28,0,0,1-5.39,15.05l-5.82,5.4A17.27,17.27,0,0,1,147.15,51.42Z"/><path class="cls-7" d="M159.62,25.16a4.85,4.85,0,0,1-.32-1,4.61,4.61,0,1,1,.32,1Zm8-3.63a4,4,0,0,0-1.45-1.71,4.08,4.08,0,0,0-6.26,4.2,4.08,4.08,0,0,0,7.4,1.45A4.09,4.09,0,0,0,167.63,21.53Z"/><path class="cls-8" d="M49.9,179.39c-.41,0-.82,0-1.24-.06a12.71,12.71,0,0,1-10-6.45L35,166.47a12.94,12.94,0,0,1-1.07-10.32h0a12.92,12.92,0,0,1,11.9-8.93l2-.05a12.9,12.9,0,0,1,10.7,5.18l3.34,4.48a12.83,12.83,0,0,1-.5,16l-1.68,2A12.68,12.68,0,0,1,49.9,179.39Zm-15.22-23h0a12.12,12.12,0,0,0,1,9.71l3.65,6.41a12.12,12.12,0,0,0,19.77,1.83l1.67-2a12.05,12.05,0,0,0,.47-15.06l-3.34-4.48a12.16,12.16,0,0,0-10.06-4.88l-2,.06A12.13,12.13,0,0,0,34.68,156.38Z"/><path class="cls-9" d="M54,156.62H26.37a.27.27,0,1,1,0-.54H54a.27.27,0,0,1,0,.54Z"/><path class="cls-9" d="M21.25,156.62H11.52a.27.27,0,1,1,0-.54h9.73a.27.27,0,0,1,0,.54Z"/><path class="cls-9" d="M54,162.09H41a.28.28,0,0,1-.27-.28.27.27,0,0,1,.27-.27H54a.27.27,0,0,1,.27.27A.28.28,0,0,1,54,162.09Z"/><path class="cls-9" d="M37.63,162.09H23.81a.28.28,0,0,1-.27-.28.27.27,0,0,1,.27-.27H37.63a.27.27,0,0,1,.28.27A.28.28,0,0,1,37.63,162.09Z"/><path class="cls-9" d="M20.48,162.09h-9a.29.29,0,0,1-.28-.28.28.28,0,0,1,.28-.27h9a.27.27,0,0,1,.27.27A.28.28,0,0,1,20.48,162.09Z"/><path class="cls-9" d="M54,167.55H20.73a.27.27,0,0,1-.27-.27.28.28,0,0,1,.27-.28H54a.28.28,0,0,1,.27.28A.27.27,0,0,1,54,167.55Z"/><path class="cls-9" d="M17.41,167.55H11.52a.28.28,0,0,1-.28-.27.29.29,0,0,1,.28-.28h5.89a.28.28,0,0,1,.27.28A.27.27,0,0,1,17.41,167.55Z"/><path class="cls-9" d="M54,173H46.6a.27.27,0,1,1,0-.54H54a.27.27,0,1,1,0,.54Z"/><path class="cls-9" d="M42,173H25.86a.27.27,0,1,1,0-.54H42a.27.27,0,1,1,0,.54Z"/><path class="cls-9" d="M20.73,173H11.52a.27.27,0,1,1,0-.54h9.21a.27.27,0,1,1,0,.54Z"/></svg>